<mxfile host="app.diagrams.net" agent="Mozilla/5.0 (X11; Linux x86_64; rv:109.0) Gecko/20100101 Firefox/115.0" version="24.7.14">
  <diagram name="Page-1" id="q_UBp8_0X8ESd24AhM2i">
    <mxGraphModel dx="853" dy="372" grid="1" gridSize="10" guides="1" tooltips="1" connect="1" arrows="1" fold="1" page="1" pageScale="1" pageWidth="850" pageHeight="1100" math="0" shadow="0">
      <root>
        <mxCell id="0" />
        <mxCell id="1" parent="0" />
        <mxCell id="pGI4vGsXoLV3_2QaF3hQ-1" value="" style="rounded=0;html=1;jettySize=auto;orthogonalLoop=1;fontSize=11;endArrow=block;endFill=0;endSize=8;strokeWidth=1;shadow=0;labelBackgroundColor=none;" edge="1" parent="1" source="pGI4vGsXoLV3_2QaF3hQ-3">
          <mxGeometry relative="1" as="geometry">
            <mxPoint x="245" y="150" as="targetPoint" />
          </mxGeometry>
        </mxCell>
        <mxCell id="pGI4vGsXoLV3_2QaF3hQ-2" value="&lt;font style=&quot;font-size: 11px;&quot;&gt;Spring reçoit la requête&lt;/font&gt;" style="edgeLabel;html=1;align=center;verticalAlign=middle;resizable=0;points=[];" vertex="1" connectable="0" parent="pGI4vGsXoLV3_2QaF3hQ-1">
          <mxGeometry x="-0.3664" y="-1" relative="1" as="geometry">
            <mxPoint x="76" y="80" as="offset" />
          </mxGeometry>
        </mxCell>
        <mxCell id="pGI4vGsXoLV3_2QaF3hQ-3" value="Remplissage de la formulaire et envoi la demande d&#39;ajout" style="rounded=1;whiteSpace=wrap;html=1;fontSize=12;glass=0;strokeWidth=1;shadow=0;fillColor=#dae8fc;strokeColor=#6c8ebf;" vertex="1" parent="1">
          <mxGeometry x="160" y="80" width="170" height="40" as="geometry" />
        </mxCell>
        <mxCell id="pGI4vGsXoLV3_2QaF3hQ-4" value="Filtre de l&#39;authentification" style="rounded=0;html=1;jettySize=auto;orthogonalLoop=1;fontSize=11;endArrow=block;endFill=0;endSize=8;strokeWidth=1;shadow=0;labelBackgroundColor=none;exitX=0.5;exitY=1;exitDx=0;exitDy=0;" edge="1" parent="1" source="pGI4vGsXoLV3_2QaF3hQ-5">
          <mxGeometry x="-0.1429" y="85" relative="1" as="geometry">
            <mxPoint as="offset" />
            <mxPoint x="220" y="374.17" as="sourcePoint" />
            <mxPoint x="245" y="310" as="targetPoint" />
          </mxGeometry>
        </mxCell>
        <mxCell id="pGI4vGsXoLV3_2QaF3hQ-5" value="Filtrage par Spring Security" style="rounded=1;whiteSpace=wrap;html=1;fontSize=12;glass=0;strokeWidth=1;shadow=0;fillColor=#dae8fc;strokeColor=#6c8ebf;" vertex="1" parent="1">
          <mxGeometry x="185" y="230" width="120" height="40" as="geometry" />
        </mxCell>
        <mxCell id="pGI4vGsXoLV3_2QaF3hQ-11" value="" style="ellipse;fillColor=strokeColor;html=1;" vertex="1" parent="1">
          <mxGeometry x="10" y="80" width="30" height="30" as="geometry" />
        </mxCell>
        <mxCell id="pGI4vGsXoLV3_2QaF3hQ-12" value="&lt;font style=&quot;font-size: 11px;&quot;&gt;Demande la page d&#39;ajouter une boutique&lt;br&gt;&lt;/font&gt;" style="endArrow=blockThin;endSize=12;html=1;rounded=0;entryX=0.009;entryY=0.396;entryDx=0;entryDy=0;entryPerimeter=0;exitX=1;exitY=0.5;exitDx=0;exitDy=0;endFill=0;" edge="1" parent="1" source="pGI4vGsXoLV3_2QaF3hQ-11" target="pGI4vGsXoLV3_2QaF3hQ-3">
          <mxGeometry x="0.3185" y="26" width="160" relative="1" as="geometry">
            <mxPoint x="50" y="94.71" as="sourcePoint" />
            <mxPoint x="120" y="95" as="targetPoint" />
            <mxPoint as="offset" />
          </mxGeometry>
        </mxCell>
        <mxCell id="pGI4vGsXoLV3_2QaF3hQ-13" value="Appel Controller REST" style="rounded=1;whiteSpace=wrap;html=1;fontSize=12;glass=0;strokeWidth=1;shadow=0;fillColor=#dae8fc;strokeColor=#6c8ebf;" vertex="1" parent="1">
          <mxGeometry x="185" y="310" width="120" height="40" as="geometry" />
        </mxCell>
        <mxCell id="pGI4vGsXoLV3_2QaF3hQ-14" value="&lt;div style=&quot;&quot;&gt;&lt;font style=&quot;font-size: 11px;&quot;&gt;Controlleur reçoit la demande&amp;nbsp;&lt;/font&gt;&lt;/div&gt;&lt;div style=&quot;&quot;&gt;&lt;font style=&quot;font-size: 11px;&quot;&gt;et tente d&#39;ajouter la boutique&lt;br&gt;&lt;/font&gt;&lt;/div&gt;" style="rounded=0;html=1;jettySize=auto;orthogonalLoop=1;fontSize=11;endArrow=block;endFill=0;endSize=8;strokeWidth=1;shadow=0;labelBackgroundColor=none;" edge="1" parent="1" source="pGI4vGsXoLV3_2QaF3hQ-13">
          <mxGeometry x="-0.1429" y="95" relative="1" as="geometry">
            <mxPoint as="offset" />
            <mxPoint x="244.70999999999998" y="410" as="sourcePoint" />
            <mxPoint x="245" y="400" as="targetPoint" />
          </mxGeometry>
        </mxCell>
        <mxCell id="pGI4vGsXoLV3_2QaF3hQ-15" value="Appel Service" style="rounded=1;whiteSpace=wrap;html=1;fontSize=12;glass=0;strokeWidth=1;shadow=0;fillColor=#dae8fc;strokeColor=#6c8ebf;" vertex="1" parent="1">
          <mxGeometry x="185" y="399.99999999999994" width="120" height="40" as="geometry" />
        </mxCell>
        <mxCell id="pGI4vGsXoLV3_2QaF3hQ-19" value="" style="ellipse;html=1;shape=endState;fillColor=#000000;strokeColor=#ff0000;" vertex="1" parent="1">
          <mxGeometry x="230" y="610" width="30" height="30" as="geometry" />
        </mxCell>
        <mxCell id="pGI4vGsXoLV3_2QaF3hQ-21" value="Diagramme d&#39;activité ajouter une boutique" style="shape=umlFrame;whiteSpace=wrap;html=1;pointerEvents=0;width=230;height=30;fillColor=#ffcc99;strokeColor=#ff7800;" vertex="1" parent="1">
          <mxGeometry y="20" width="450" height="660" as="geometry" />
        </mxCell>
        <mxCell id="pGI4vGsXoLV3_2QaF3hQ-24" value="Envoie une requête HTTP POST" style="rounded=1;whiteSpace=wrap;html=1;fontSize=12;glass=0;strokeWidth=1;shadow=0;fillColor=#dae8fc;strokeColor=#6c8ebf;" vertex="1" parent="1">
          <mxGeometry x="185" y="150" width="120" height="40" as="geometry" />
        </mxCell>
        <mxCell id="pGI4vGsXoLV3_2QaF3hQ-25" value="" style="rounded=0;html=1;jettySize=auto;orthogonalLoop=1;fontSize=11;endArrow=block;endFill=0;endSize=8;strokeWidth=1;shadow=0;labelBackgroundColor=none;exitX=0.5;exitY=1;exitDx=0;exitDy=0;" edge="1" parent="1" source="pGI4vGsXoLV3_2QaF3hQ-24">
          <mxGeometry relative="1" as="geometry">
            <mxPoint x="245" y="230" as="targetPoint" />
            <mxPoint x="244.58" y="210" as="sourcePoint" />
          </mxGeometry>
        </mxCell>
        <mxCell id="pGI4vGsXoLV3_2QaF3hQ-35" value="" style="rounded=0;html=1;jettySize=auto;orthogonalLoop=1;fontSize=11;endArrow=block;endFill=0;endSize=8;strokeWidth=1;shadow=0;labelBackgroundColor=none;entryX=0.5;entryY=0;entryDx=0;entryDy=0;" edge="1" parent="1" source="pGI4vGsXoLV3_2QaF3hQ-9" target="pGI4vGsXoLV3_2QaF3hQ-19">
          <mxGeometry x="-0.1429" y="95" relative="1" as="geometry">
            <mxPoint as="offset" />
            <mxPoint x="244.76" y="650" as="sourcePoint" />
            <mxPoint x="245" y="600" as="targetPoint" />
          </mxGeometry>
        </mxCell>
        <mxCell id="pGI4vGsXoLV3_2QaF3hQ-36" style="edgeStyle=orthogonalEdgeStyle;rounded=0;orthogonalLoop=1;jettySize=auto;html=1;exitX=1;exitY=0.5;exitDx=0;exitDy=0;endArrow=none;endFill=0;startArrow=block;startFill=0;sourcePerimeterSpacing=8;targetPerimeterSpacing=7;entryX=1;entryY=0.5;entryDx=0;entryDy=0;" edge="1" parent="1" source="pGI4vGsXoLV3_2QaF3hQ-3" target="pGI4vGsXoLV3_2QaF3hQ-8">
          <mxGeometry relative="1" as="geometry">
            <mxPoint x="270" y="610" as="targetPoint" />
            <Array as="points">
              <mxPoint x="440" y="100" />
              <mxPoint x="440" y="490" />
            </Array>
          </mxGeometry>
        </mxCell>
        <mxCell id="pGI4vGsXoLV3_2QaF3hQ-37" value="&lt;div&gt;&lt;font color=&quot;#ff141c&quot;&gt;Données&amp;nbsp;&lt;/font&gt;&lt;/div&gt;&lt;div&gt;&lt;font color=&quot;#ff141c&quot;&gt;non valides&lt;/font&gt;&lt;/div&gt;" style="edgeLabel;html=1;align=center;verticalAlign=middle;resizable=0;points=[];" vertex="1" connectable="0" parent="pGI4vGsXoLV3_2QaF3hQ-36">
          <mxGeometry x="0.7114" y="5" relative="1" as="geometry">
            <mxPoint x="26" y="15" as="offset" />
          </mxGeometry>
        </mxCell>
        <mxCell id="pGI4vGsXoLV3_2QaF3hQ-40" value="" style="rounded=0;html=1;jettySize=auto;orthogonalLoop=1;fontSize=11;endArrow=block;endFill=0;endSize=8;strokeWidth=1;shadow=0;labelBackgroundColor=none;" edge="1" parent="1" source="pGI4vGsXoLV3_2QaF3hQ-15">
          <mxGeometry x="-0.1429" y="95" relative="1" as="geometry">
            <mxPoint as="offset" />
            <mxPoint x="246" y="490" as="sourcePoint" />
            <mxPoint x="245" y="470" as="targetPoint" />
          </mxGeometry>
        </mxCell>
        <mxCell id="pGI4vGsXoLV3_2QaF3hQ-8" value="" style="rhombus;whiteSpace=wrap;html=1;shadow=0;fontFamily=Helvetica;fontSize=12;align=center;strokeWidth=1;spacing=6;spacingTop=-4;fillColor=#ffff88;strokeColor=#36393d;" vertex="1" parent="1">
          <mxGeometry x="220" y="470" width="50" height="40" as="geometry" />
        </mxCell>
        <mxCell id="pGI4vGsXoLV3_2QaF3hQ-45" value="" style="rounded=0;html=1;jettySize=auto;orthogonalLoop=1;fontSize=11;endArrow=block;endFill=0;endSize=8;strokeWidth=1;shadow=0;labelBackgroundColor=none;exitX=0.5;exitY=1;exitDx=0;exitDy=0;" edge="1" parent="1" source="pGI4vGsXoLV3_2QaF3hQ-8">
          <mxGeometry x="-0.1429" y="95" relative="1" as="geometry">
            <mxPoint as="offset" />
            <mxPoint x="244.57999999999998" y="560" as="sourcePoint" />
            <mxPoint x="245" y="540" as="targetPoint" />
          </mxGeometry>
        </mxCell>
        <mxCell id="pGI4vGsXoLV3_2QaF3hQ-46" value="&lt;div&gt;&lt;font color=&quot;#2ec27e&quot;&gt;Données&lt;/font&gt;&lt;/div&gt;&lt;div&gt;&lt;font color=&quot;#2ec27e&quot;&gt;&amp;nbsp;valides&lt;/font&gt;&lt;/div&gt;" style="edgeLabel;html=1;align=center;verticalAlign=middle;resizable=0;points=[];" vertex="1" connectable="0" parent="pGI4vGsXoLV3_2QaF3hQ-45">
          <mxGeometry x="-0.24" relative="1" as="geometry">
            <mxPoint x="35" as="offset" />
          </mxGeometry>
        </mxCell>
        <mxCell id="pGI4vGsXoLV3_2QaF3hQ-9" value="Insérer dans BD" style="rounded=1;whiteSpace=wrap;html=1;fontSize=12;glass=0;strokeWidth=1;shadow=0;strokeColor=#82b366;fillColor=#8ff0a4;" vertex="1" parent="1">
          <mxGeometry x="195" y="540" width="100" height="40" as="geometry" />
        </mxCell>
      </root>
    </mxGraphModel>
  </diagram>
</mxfile>
